<svg width="50" height="50" viewBox="0 0 50 50" fill="none" xmlns="http://www.w3.org/2000/svg">
<path d="M44.5738 20.6037L43.622 21.562L46.3629 24.3213H39.7297C39.4996 17.9736 36.0461 11.5818 29.4364 5.31111C29.2523 5.13767 29.1079 5.00032 29.0105 4.90229C28.5803 4.46978 28.5686 3.91122 28.5568 3.3182L28.5568 3.31725C28.5423 2.65666 28.5155 1.42816 27.0908 1.42816C26.398 1.42816 25.8089 1.89246 25.4767 2.70147C25.2841 3.16954 25.1894 3.74533 25.1797 4.35559L9.17719 21.6616H1.05981L4.11908 24.9995L1.06142 28.3384H9.17772L25.1803 45.6444C25.1894 46.2541 25.2846 46.8305 25.4772 47.2985C25.81 48.107 26.3985 48.5718 27.0914 48.5718C28.516 48.5718 28.5429 47.3424 28.5573 46.6809L28.5573 46.6807C28.5691 46.0893 28.5809 45.5292 29.011 45.0977C29.0897 45.0185 29.199 44.9144 29.3346 44.7853C29.3669 44.7546 29.4007 44.7225 29.4358 44.6889C36.0461 38.4177 39.4991 32.0242 39.7297 25.6771H46.3635L43.6225 28.4364L44.5743 29.3946L48.9401 24.9995L44.5738 20.6037ZM26.7201 3.22017C26.803 3.01872 26.9501 2.78334 27.1561 2.74079C27.1984 2.82535 27.2059 3.13937 27.2102 3.34836C27.2246 4.02326 27.2471 5.04395 28.0582 5.86051C28.162 5.965 28.316 6.11204 28.5119 6.29733C34.8374 12.2982 38.1492 18.3577 38.383 24.3219H37.2504C36.8973 16.3992 30.5241 10.1614 28.0753 7.77424L27.5665 7.27386C26.4215 6.1212 26.3402 4.14499 26.7201 3.22017ZM12.3932 24.3213L10.4061 22.322L25.4087 6.09696C25.6356 6.88443 26.0261 7.63958 26.6147 8.23207L27.1379 8.747C29.4733 11.0238 35.5426 16.9637 35.9037 24.3219L12.3932 24.3213ZM35.9037 25.6771C35.5431 33.0368 29.4733 38.9762 27.1379 41.253L26.6147 41.7679C26.0261 42.3604 25.6361 43.1156 25.4087 43.903L10.4061 27.677L12.3932 25.6765L35.9037 25.6765V25.6771ZM4.13352 23.0168H9.19217L11.1627 24.9995L9.19217 26.9832H4.13192L5.94886 24.9995L4.13352 23.0168ZM28.5119 43.7027C28.316 43.888 28.162 44.035 28.0582 44.1395C27.2471 44.9561 27.2246 45.9768 27.2102 46.6516C27.2098 46.6719 27.2094 46.6931 27.209 46.715C27.2051 46.9181 27.2001 47.1775 27.2166 47.2037C27.2166 47.2037 27.1813 47.2172 27.0903 47.2172C26.9496 47.2172 26.8025 46.9818 26.7195 46.7804C26.3397 45.8556 26.421 43.8793 27.5659 42.7267L28.0747 42.2263C30.5236 39.8397 36.8973 33.6018 37.2504 25.6776H38.3825C38.1492 31.6407 34.8374 37.7019 28.5119 43.7027Z" fill="white"/>
<path d="M44.5738 20.6037L43.622 21.562L46.3629 24.3213H39.7297C39.4996 17.9736 36.0461 11.5818 29.4364 5.31111C29.2523 5.13767 29.1079 5.00032 29.0105 4.90229C28.5803 4.46978 28.5686 3.91122 28.5568 3.3182L28.5568 3.31725C28.5423 2.65666 28.5155 1.42816 27.0908 1.42816C26.398 1.42816 25.8089 1.89246 25.4767 2.70147C25.2841 3.16954 25.1894 3.74533 25.1797 4.35559L9.17719 21.6616H1.05981L4.11908 24.9995L1.06142 28.3384H9.17772L25.1803 45.6444C25.1894 46.2541 25.2846 46.8305 25.4772 47.2985C25.81 48.107 26.3985 48.5718 27.0914 48.5718C28.516 48.5718 28.5429 47.3424 28.5573 46.6809L28.5573 46.6807C28.5691 46.0893 28.5809 45.5292 29.011 45.0977C29.0897 45.0185 29.199 44.9144 29.3346 44.7853C29.3669 44.7546 29.4007 44.7225 29.4358 44.6889C36.0461 38.4177 39.4991 32.0242 39.7297 25.6771H46.3635L43.6225 28.4364L44.5743 29.3946L48.9401 24.9995L44.5738 20.6037ZM26.7201 3.22017C26.803 3.01872 26.9501 2.78334 27.1561 2.74079C27.1984 2.82535 27.2059 3.13937 27.2102 3.34836C27.2246 4.02326 27.2471 5.04395 28.0582 5.86051C28.162 5.965 28.316 6.11204 28.5119 6.29733C34.8374 12.2982 38.1492 18.3577 38.383 24.3219H37.2504C36.8973 16.3992 30.5241 10.1614 28.0753 7.77424L27.5665 7.27386C26.4215 6.1212 26.3402 4.14499 26.7201 3.22017ZM12.3932 24.3213L10.4061 22.322L25.4087 6.09696C25.6356 6.88443 26.0261 7.63958 26.6147 8.23207L27.1379 8.747C29.4733 11.0238 35.5426 16.9637 35.9037 24.3219L12.3932 24.3213ZM35.9037 25.6771C35.5431 33.0368 29.4733 38.9762 27.1379 41.253L26.6147 41.7679C26.0261 42.3604 25.6361 43.1156 25.4087 43.903L10.4061 27.677L12.3932 25.6765L35.9037 25.6765V25.6771ZM4.13352 23.0168H9.19217L11.1627 24.9995L9.19217 26.9832H4.13192L5.94886 24.9995L4.13352 23.0168ZM28.5119 43.7027C28.316 43.888 28.162 44.035 28.0582 44.1395C27.2471 44.9561 27.2246 45.9768 27.2102 46.6516C27.2098 46.6719 27.2094 46.6931 27.209 46.715C27.2051 46.9181 27.2001 47.1775 27.2166 47.2037C27.2166 47.2037 27.1813 47.2172 27.0903 47.2172C26.9496 47.2172 26.8025 46.9818 26.7195 46.7804C26.3397 45.8556 26.421 43.8793 27.5659 42.7267L28.0747 42.2263C30.5236 39.8397 36.8973 33.6018 37.2504 25.6776H38.3825C38.1492 31.6407 34.8374 37.7019 28.5119 43.7027Z" stroke="white"/>
</svg>
