<svg width="50" height="50" viewBox="0 0 50 50" fill="none" xmlns="http://www.w3.org/2000/svg">
<path d="M42.1928 7H36.4821C36.2682 7 36.0623 7.08475 35.913 7.23812L17.0776 26.0735L15.6529 24.6448C15.3462 24.3381 15.1767 23.9345 15.1767 23.5027C15.1767 23.0709 15.3462 22.6673 15.6529 22.3605C16.2623 21.7511 17.3238 21.7511 17.9332 22.3605C18.248 22.6753 18.7605 22.6753 19.0753 22.3605C19.3901 22.0457 19.3901 21.5372 19.0753 21.2184C18.4659 20.609 17.6547 20.274 16.791 20.274C15.9314 20.274 15.1202 20.609 14.5108 21.2184C13.9013 21.8318 13.5623 22.639 13.5623 23.5027C13.5623 24.3664 13.9013 25.1776 14.5108 25.787L16.791 28.0673L14.5108 30.3516C14.4704 30.3919 14.4341 30.4323 14.4058 30.4807L10.4265 36.5507C9.53453 36.4982 8.62646 36.8049 7.94439 37.487C7.33498 38.0964 7 38.9076 7 39.7713C7 40.6309 7.33498 41.4422 7.94439 42.0516C8.55381 42.661 9.36502 43 10.2287 43C11.0924 43 11.9036 42.661 12.513 42.0516C13.1224 41.4422 13.4574 40.6309 13.4574 39.7713C13.4574 39.7027 13.4534 39.6381 13.4493 39.5695L19.5193 35.5942C19.5637 35.5619 19.6081 35.5296 19.6444 35.4892L21.9287 33.2049L24.213 35.4892C24.8224 36.0987 25.6336 36.4336 26.4973 36.4336C27.357 36.4336 28.1682 36.0987 28.7776 35.4892C30.0368 34.23 30.0368 32.1839 28.7776 30.9247C28.4628 30.6058 27.9543 30.6058 27.6354 30.9247C27.3206 31.2395 27.3206 31.748 27.6354 32.0628C28.265 32.6924 28.265 33.7175 27.6354 34.3471C27.026 34.9565 25.9646 34.9565 25.3552 34.3471L23.9265 32.9224L42.7619 14.087C42.9152 13.9336 43 13.7278 43 13.5139V7.80717C43 7.36323 42.6368 7 42.1928 7ZM36.817 8.61435H40.2435L19.9309 28.9269L18.2197 27.2117L36.817 8.61435ZM11.3709 40.9094C10.7614 41.5229 9.69596 41.5229 9.08655 40.9094C8.78386 40.6067 8.61435 40.1991 8.61435 39.7713C8.61435 39.3395 8.78386 38.9318 9.08655 38.6291C9.40135 38.3143 9.81704 38.157 10.2287 38.157C10.6404 38.157 11.0561 38.3143 11.3709 38.6291C11.6735 38.9318 11.843 39.3395 11.843 39.7713C11.843 40.1991 11.6735 40.6067 11.3709 40.9094ZM12.9206 37.9874C12.8036 37.8099 12.6664 37.6404 12.513 37.487C12.3556 37.3296 12.1901 37.1964 12.0126 37.0794L15.213 32.196L17.804 34.787L12.9206 37.9874ZM19.0753 33.778L16.222 30.9247L17.9332 29.2094L20.7865 32.0628L19.0753 33.778ZM41.3857 13.1789L22.7843 31.7803L21.0731 30.065L41.3857 9.7565V13.1789Z" fill="white"/>
</svg>
