<svg width="50" height="50" viewBox="0 0 50 50" fill="none" xmlns="http://www.w3.org/2000/svg">
<path d="M32.0063 19.9812L36.7042 14.2846C37.0476 13.8603 37.2088 13.3171 37.1524 12.7742C37.096 12.2313 36.8265 11.7329 36.4031 11.3883L34.3005 9.65514C33.8785 9.30957 33.3368 9.1453 32.794 9.1983C32.2512 9.2513 31.7514 9.51726 31.4043 9.93792L8.33477 37.9424C7.9892 38.3644 7.82493 38.9061 7.87793 39.449C7.93093 39.9918 8.19688 40.4915 8.61755 40.8387L10.7247 42.5718C11.0928 42.8718 11.5544 43.0332 12.0292 43.0279C12.096 43.0324 12.163 43.0324 12.2299 43.0279C12.4991 43.0032 12.7608 42.9251 12.9996 42.7983C13.2385 42.6714 13.4497 42.4983 13.621 42.2891L31.9106 20.0998L31.9653 20.0497L32.0063 19.9812ZM32.8319 11.0964C32.8535 11.07 32.8806 11.0486 32.9113 11.0337C32.942 11.0187 32.9756 11.0105 33.0098 11.0098C33.0648 11.01 33.118 11.0293 33.1603 11.0645L35.2629 12.7977C35.2866 12.8171 35.3063 12.841 35.3207 12.868C35.3352 12.8951 35.3442 12.9247 35.3471 12.9552C35.3501 12.9857 35.347 13.0165 35.338 13.0459C35.3291 13.0752 35.3144 13.1024 35.2948 13.1261L31.1306 18.1796L28.6494 16.1546L32.8319 11.0964ZM12.2299 41.1306C12.1895 41.1778 12.1321 41.2073 12.0702 41.2127C12.0402 41.2164 12.0096 41.2139 11.9806 41.2053C11.9515 41.1967 11.9246 41.1821 11.9015 41.1625L9.79429 39.4293C9.7481 39.39 9.71872 39.3345 9.71219 39.2742C9.70859 39.2435 9.71117 39.2123 9.71979 39.1825C9.7284 39.1528 9.74288 39.125 9.76236 39.1009L27.5046 17.5593L29.9676 19.589L12.2299 41.1306Z" fill="white"/>
<path d="M15.9745 12.4191C16.1502 12.5792 16.3798 12.6672 16.6176 12.6654H16.6814H16.8547C17.6407 12.6678 18.3938 12.9808 18.95 13.5361C19.5062 14.0914 19.8203 14.8441 19.8239 15.63C19.8239 15.872 19.92 16.104 20.0911 16.2751C20.2622 16.4461 20.4942 16.5422 20.7361 16.5422C20.9781 16.5422 21.2101 16.4461 21.3812 16.2751C21.5522 16.104 21.6483 15.872 21.6483 15.63C21.6527 14.885 21.9362 14.1687 22.4428 13.6224C22.9494 13.0761 23.6423 12.7395 24.3849 12.6791C24.6065 12.6639 24.8149 12.5684 24.9711 12.4106C25.1272 12.2527 25.2205 12.0433 25.2333 11.8216V11.6893C25.2205 11.4677 25.1272 11.2582 24.9711 11.1004C24.8149 10.9425 24.6065 10.8471 24.3849 10.8319C23.6423 10.7714 22.9494 10.4348 22.4428 9.88856C21.9362 9.34227 21.6527 8.62594 21.6483 7.88092C21.6483 7.63899 21.5522 7.40697 21.3812 7.2359C21.2101 7.06483 20.9781 6.96872 20.7361 6.96872C20.4942 6.96872 20.2622 7.06483 20.0911 7.2359C19.92 7.40697 19.8239 7.63899 19.8239 7.88092C19.8203 8.66645 19.506 9.41864 18.9497 9.97324C18.3934 10.5278 17.6403 10.8398 16.8547 10.841H16.6404C16.5187 10.8324 16.3965 10.8482 16.2811 10.8876C16.1656 10.927 16.0593 10.9891 15.9683 11.0704C15.8773 11.1516 15.8035 11.2502 15.7513 11.3605C15.6991 11.4707 15.6695 11.5903 15.6643 11.7122V11.7714C15.6695 11.8948 15.6997 12.0158 15.753 12.1271C15.8063 12.2384 15.8816 12.3378 15.9745 12.4191ZM20.7407 10.6586C21.0376 11.0726 21.3978 11.4373 21.808 11.7395C21.3929 12.0406 21.0281 12.4054 20.727 12.8205C20.4259 12.4054 20.0611 12.0406 19.6461 11.7395C20.066 11.4396 20.4355 11.0747 20.7407 10.6586Z" fill="white"/>
<path d="M42.1318 20.7976C42.119 20.5759 42.0257 20.3665 41.8696 20.2087C41.7134 20.0508 41.505 19.9553 41.2834 19.9402C40.5408 19.8797 39.8479 19.5431 39.3413 18.9968C38.8347 18.4505 38.5512 17.7342 38.5468 16.9892C38.5468 16.7473 38.4507 16.5152 38.2797 16.3442C38.1086 16.1731 37.8766 16.077 37.6346 16.077C37.3927 16.077 37.1607 16.1731 36.9896 16.3442C36.8185 16.5152 36.7224 16.7473 36.7224 16.9892C36.7188 17.7747 36.4045 18.5269 35.8482 19.0815C35.2919 19.6361 34.5388 19.9481 33.7532 19.9493H33.5389C33.4172 19.9406 33.295 19.9565 33.1796 19.9959C33.0641 20.0353 32.9578 20.0974 32.8668 20.1786C32.7758 20.2598 32.702 20.3585 32.6498 20.4687C32.5976 20.579 32.568 20.6986 32.5628 20.8204V20.8934C32.5655 21.0198 32.5945 21.1443 32.6479 21.259C32.7013 21.3736 32.7779 21.4759 32.873 21.5593C33.0487 21.7194 33.2783 21.8074 33.5161 21.8056H33.5799H33.7532C34.5392 21.808 35.2923 22.121 35.8485 22.6763C36.4047 23.2316 36.7188 23.9843 36.7224 24.7703C36.7224 25.0122 36.8185 25.2442 36.9896 25.4153C37.1607 25.5863 37.3927 25.6825 37.6346 25.6825C37.8766 25.6825 38.1086 25.5863 38.2797 25.4153C38.4507 25.2442 38.5468 25.0122 38.5468 24.7703C38.5512 24.0252 38.8347 23.3089 39.3413 22.7626C39.8479 22.2163 40.5408 21.8797 41.2834 21.8193C41.505 21.8041 41.7134 21.7086 41.8696 21.5508C42.0257 21.3929 42.119 21.1835 42.1318 20.9618V20.8296V20.7976ZM37.6164 21.9424C37.3153 21.5274 36.9505 21.1625 36.5354 20.8615C36.9505 20.5604 37.3153 20.1956 37.6164 19.7805C37.9133 20.1945 38.2735 20.5593 38.6837 20.8615C38.2735 21.1637 37.9133 21.5284 37.6164 21.9424Z" fill="white"/>
</svg>
