<svg width="50" height="50" viewBox="0 0 50 50" fill="none" xmlns="http://www.w3.org/2000/svg">
<path d="M17.947 21.3366C17.7468 21.1364 17.464 21.0451 17.1856 21.0929L8.2619 22.6331C7.90078 22.694 7.61362 22.9812 7.55271 23.3423L6.0125 32.266C5.96464 32.5444 6.05601 32.8272 6.25615 33.0274L16.1022 42.8734C16.2675 43.0387 16.4894 43.1301 16.7157 43.1301C16.7635 43.1301 16.8157 43.1258 16.8636 43.1171L25.7872 41.5769C26.1484 41.5159 26.4355 41.2288 26.4964 40.8677L28.0367 31.944C28.0845 31.6655 27.9931 31.3827 27.793 31.1826L17.947 21.3366ZM18.2472 36.4037L12.7259 30.8824L13.1653 28.2458L15.802 27.8063L21.3232 33.3276L20.8838 35.9642L18.2472 36.4037ZM22.5197 32.0658L17.0637 26.6098L17.8034 23.6556L25.474 31.3262L22.5197 32.0658ZM15.393 26.1095L12.7042 26.5576L10.2067 24.0602L16.1588 23.0334L15.393 26.1095ZM11.4772 27.7889L11.0291 30.4778L7.95734 31.2479L8.98415 25.2959L11.4772 27.7889ZM11.5251 32.1485L16.9811 37.6045L16.2414 40.5587L8.57082 32.8838L11.5251 32.1485ZM18.6518 38.1005L21.3406 37.6524L23.8381 40.1498L17.886 41.1766L18.6518 38.1005ZM22.5719 36.4211L23.0201 33.7322L26.0918 32.9621L25.065 38.9141L22.5719 36.4211Z" fill="white"/>
<path d="M41.7332 13.4441L39.1227 8.223C38.9747 7.92714 38.6745 7.74005 38.3439 7.74005H24.421C24.0904 7.74005 23.7902 7.92714 23.6422 8.223L21.0317 13.4441C20.8577 13.7921 20.936 14.2142 21.2231 14.4752L30.7951 23.177C30.9604 23.3293 31.1693 23.4032 31.3824 23.4032C31.5956 23.4032 31.8001 23.3293 31.9698 23.177L41.5418 14.4752C41.8289 14.2142 41.9072 13.7921 41.7332 13.4441ZM39.5447 12.9611H35.5985L35.0198 9.4804H37.8043L39.5447 12.9611ZM28.9286 12.9611L29.5072 9.4804H33.2533L33.832 12.9611H28.9286ZM33.5753 14.7015L31.3781 20.1879L29.1809 14.7015H33.5753ZM27.31 14.7015L29.1679 19.3438L24.0599 14.7015H27.31ZM35.4505 14.7015H38.7006L33.5927 19.3482L35.4505 14.7015ZM24.9562 9.4804H27.7408L27.1621 12.9611H23.2158L24.9562 9.4804Z" fill="white"/>
<path d="M39.214 26.8839C38.7355 26.8839 38.3439 27.2755 38.3439 27.7541V29.4945C38.3439 29.9731 38.7355 30.3646 39.214 30.3646C39.6926 30.3646 40.0842 29.9731 40.0842 29.4945V27.7541C40.0842 27.2755 39.6926 26.8839 39.214 26.8839Z" fill="white"/>
<path d="M39.214 32.9751C38.7355 32.9751 38.3439 33.3667 38.3439 33.8453V35.5857C38.3439 36.0643 38.7355 36.4558 39.214 36.4558C39.6926 36.4558 40.0842 36.0643 40.0842 35.5857V33.8453C40.0842 33.3667 39.6926 32.9751 39.214 32.9751Z" fill="white"/>
<path d="M43.1298 30.7997H41.3895C40.9109 30.7997 40.5193 31.1913 40.5193 31.6699C40.5193 32.1485 40.9109 32.5401 41.3895 32.5401H43.1298C43.6084 32.5401 44 32.1485 44 31.6699C44 31.1913 43.6084 30.7997 43.1298 30.7997Z" fill="white"/>
<path d="M37.0386 30.7997H35.2983C34.8197 30.7997 34.4281 31.1913 34.4281 31.6699C34.4281 32.1485 34.8197 32.5401 35.2983 32.5401H37.0386C37.5172 32.5401 37.9088 32.1485 37.9088 31.6699C37.9088 31.1913 37.5172 30.7997 37.0386 30.7997Z" fill="white"/>
<path d="M11.8036 10.3506C12.2822 10.3506 12.6738 9.959 12.6738 9.4804V7.74005C12.6738 7.26145 12.2822 6.86987 11.8036 6.86987C11.325 6.86987 10.9334 7.26145 10.9334 7.74005V9.4804C10.9334 9.96335 11.3206 10.3506 11.8036 10.3506Z" fill="white"/>
<path d="M11.8036 16.4418C12.2822 16.4418 12.6738 16.0502 12.6738 15.5716V13.8312C12.6738 13.3526 12.2822 12.9611 11.8036 12.9611C11.325 12.9611 10.9334 13.3526 10.9334 13.8312V15.5716C10.9334 16.0545 11.3206 16.4418 11.8036 16.4418Z" fill="white"/>
<path d="M13.9789 12.526H15.7193C16.1979 12.526 16.5895 12.1344 16.5895 11.6558C16.5895 11.1772 16.1979 10.7856 15.7193 10.7856H13.9789C13.5003 10.7856 13.1088 11.1772 13.1088 11.6558C13.1088 12.1344 13.496 12.526 13.9789 12.526Z" fill="white"/>
<path d="M7.88788 12.526H9.62823C10.1068 12.526 10.4984 12.1344 10.4984 11.6558C10.4984 11.1772 10.1068 10.7856 9.62823 10.7856H7.88788C7.40928 10.7856 7.0177 11.1772 7.0177 11.6558C7.0177 12.1344 7.40493 12.526 7.88788 12.526Z" fill="white"/>
</svg>
